<?xml version="1.0" encoding="UTF-8"?>
<svg id="Potentia_identity" data-name="Potentia identity" xmlns="http://www.w3.org/2000/svg" viewBox="0 0 387 125.41">
  <defs>
    <style>
      .cls-1 {
        fill: #0b141b;
        stroke-width: 0px;
      }
    </style>
  </defs>
  <path class="cls-1" d="M30.32,104.2l-.05-25.4h20.83l-.07-18.78h17.88c8.06,0,13.7-2.8,17.17-6.43-2.08-1.89-4.99-3.37-8.73-4.46-7.59-2.21-16.5-2.2-21.83-2.2h-25.21s-.06-23.18-.06-23.18h28.69c17.61,0,36.42,5.29,36.42,20.15,0,3.52-.97,6.81-2.8,9.71,1.93,3.13,2.53,6.45,2.53,9.34,0,6.32-2.87,14.49-16.54,18.44-7.92,2.29-17.05,2.41-22.43,2.41l.07,20.27-25.88.13ZM35.15,83.8l.05,15.42,15.82-.08-.1-15.34h-15.77ZM56.06,65.02l.05,13.77c5.12,0,13.79.07,21.05-2.02,8.69-2.51,12.92-7.03,12.92-13.82,0-1.92-.33-3.66-1-5.22-.9.82-1.9,1.59-2.98,2.3-4.78,3.13-11.2,4.99-17.18,4.99h-12.85ZM56.22,41.91c5.65,0,14.59.09,22.53,2.4,4.49,1.31,7.8,3.11,10.22,5.16.93-1.9,1.39-3.84,1.39-5.58,0-5.14-3.38-9.09-10.06-11.74-7.46-2.96-16.58-3.41-21.35-3.41l-23.79.06.02,13.02,20.35.08h.7Z"/>
  <g>
    <path class="cls-1" d="M149.62,43.28c-2.15-.95-4.8-1.43-7.97-1.43h-16.01v41.96h6.43v-15.87h9.79c3.03,0,5.61-.56,7.73-1.68,2.12-1.12,3.73-2.67,4.83-4.65,1.1-1.98,1.64-4.23,1.64-6.75,0-2.89-.54-5.3-1.61-7.24-1.07-1.93-2.68-3.38-4.83-4.34ZM147.35,60.42c-1.42,1.19-3.49,1.78-6.19,1.78h-9.09v-14.69h9.02c1.96,0,3.55.26,4.79.77,1.24.51,2.14,1.31,2.73,2.38.58,1.07.87,2.49.87,4.27,0,2.47-.71,4.3-2.13,5.49Z"/>
    <path class="cls-1" d="M183.38,52.34c-2.49-1.35-5.37-2.03-8.64-2.03s-6.14.68-8.64,2.03c-2.49,1.35-4.45,3.3-5.87,5.84-1.42,2.54-2.13,5.61-2.13,9.2s.66,6.61,1.99,9.2c1.33,2.59,3.24,4.58,5.73,5.98,2.49,1.4,5.47,2.1,8.92,2.1,5.17,0,9.22-1.55,12.13-4.65,2.91-3.1,4.37-7.31,4.37-12.62,0-3.59-.69-6.65-2.06-9.2-1.38-2.54-3.31-4.49-5.8-5.84ZM182.44,75.8c-1.82,2.17-4.41,3.25-7.76,3.25-2.24,0-4.14-.5-5.7-1.5-1.56-1-2.75-2.38-3.57-4.13-.82-1.75-1.22-3.79-1.22-6.12,0-3.5.93-6.27,2.8-8.32,1.86-2.05,4.45-3.08,7.76-3.08,2.14,0,4,.45,5.56,1.36s2.76,2.23,3.6,3.95c.84,1.72,1.26,3.75,1.26,6.08,0,3.5-.91,6.33-2.73,8.5Z"/>
    <path class="cls-1" d="M212.05,78.53c-.77.12-1.6.18-2.48.18-1.77,0-3.05-.45-3.85-1.36-.79-.91-1.19-2.27-1.19-4.09v-16.85h10.42v-5.24h-10.42v-9.02h-6.01v9.02h-4.96v5.24h4.96v17.69c0,2,.34,3.8,1.01,5.38.68,1.59,1.75,2.84,3.22,3.78,1.47.93,3.32,1.4,5.56,1.4,1.02,0,1.92-.05,2.69-.14.77-.09,1.5-.22,2.2-.38.7-.16,1.42-.36,2.17-.59l-.77-5.59c-.93.28-1.78.48-2.55.59Z"/>
    <path class="cls-1" d="M279.29,52.02c-1.68-1.14-3.92-1.71-6.71-1.71-2.14,0-4.08.45-5.8,1.36-1.73.91-3.11,2.33-4.16,4.27-.62,1.15-1.06,2.5-1.37,4.02h-.14v-8.81h-6.08v32.66h6.08v-19.44c0-1.82.36-3.34,1.08-4.58.72-1.23,1.76-2.2,3.11-2.9,1.35-.7,2.94-1.05,4.76-1.05,1.96,0,3.52.41,4.69,1.22,1.16.82,1.98,1.86,2.45,3.15.47,1.28.7,2.67.7,4.16v19.44h6.08v-20.91c0-2.33-.36-4.44-1.08-6.33s-1.92-3.4-3.6-4.55Z"/>
    <path class="cls-1" d="M306.39,78.53c-.77.12-1.6.18-2.48.18-1.77,0-3.05-.45-3.85-1.36-.79-.91-1.19-2.27-1.19-4.09v-16.85h10.42v-5.24h-10.42v-9.02h-6.01v9.02h-4.96v5.24h4.96v17.69c0,2,.34,3.8,1.01,5.38.68,1.59,1.75,2.84,3.22,3.78,1.47.93,3.32,1.4,5.56,1.4,1.02,0,1.92-.05,2.69-.14.77-.09,1.5-.22,2.2-.38.7-.16,1.42-.36,2.17-.59l-.77-5.59c-.93.28-1.78.48-2.55.59Z"/>
    <rect class="cls-1" x="315.3" y="51.15" width="6.08" height="32.66"/>
    <rect class="cls-1" x="315.29" y="42.02" width="6.13" height="5.09"/>
    <path class="cls-1" d="M355.2,56.36c-.91-1.93-2.32-3.41-4.23-4.44-1.91-1.03-4.38-1.54-7.41-1.54s-5.31.48-7.27,1.43c-1.96.96-3.51,2.31-4.65,4.06-1.14,1.75-1.88,3.88-2.2,6.4l5.73.91c.47-2.7,1.36-4.64,2.69-5.8,1.33-1.16,3.16-1.75,5.49-1.75,2.66,0,4.51.69,5.56,2.06,1.05,1.38,1.57,3.35,1.57,5.91v1.68h-10.56c-3.96,0-6.88.94-8.74,2.83-1.87,1.89-2.8,4.28-2.8,7.17,0,2.1.43,3.81,1.29,5.14s2.07,2.34,3.64,3.04c1.56.7,3.39,1.05,5.49,1.05,2.38,0,4.46-.5,6.26-1.5,1.79-1,3.22-2.52,4.27-4.55.46-.89.81-1.89,1.08-2.97h.08v8.32h6.08v-20.35c0-2.8-.45-5.16-1.36-7.1ZM345.97,78.42c-1.47.65-3.23.98-5.28.98-1.54,0-2.77-.22-3.71-.66-.93-.44-1.61-1.06-2.03-1.85-.42-.79-.63-1.58-.63-2.38,0-1.49.56-2.61,1.68-3.36,1.12-.75,2.7-1.12,4.76-1.12h9.72v1.61c0,1.54-.38,2.89-1.15,4.06-.77,1.17-1.89,2.07-3.36,2.73Z"/>
    <path class="cls-1" d="M242.19,75.87c-.72,1.05-1.69,1.87-2.9,2.45-1.21.58-2.8.87-4.76.87-3.45,0-6.1-1-7.94-3.01-1.52-1.65-2.4-3.92-2.67-6.78h25.29c.09-.75.14-1.44.14-2.1v-1.82c0-2.98-.57-5.62-1.71-7.9-1.14-2.28-2.83-4.07-5.07-5.35-2.24-1.28-4.96-1.92-8.18-1.92s-6.21.69-8.71,2.06c-2.49,1.38-4.43,3.36-5.8,5.94-1.38,2.59-2.06,5.72-2.06,9.41s.68,6.59,2.03,9.13c1.35,2.54,3.29,4.46,5.8,5.77,2.52,1.3,5.46,1.96,8.81,1.96,2.8,0,5.19-.43,7.17-1.29,1.98-.86,3.59-2.09,4.82-3.67.87-1.12,1.57-2.39,2.11-3.79l-5.42-1.58c-.27.56-.59,1.11-.95,1.63ZM226.6,58.53c1.84-1.98,4.37-2.97,7.59-2.97s5.75.96,7.31,2.87c1.27,1.55,1.98,3.63,2.16,6.22h-19.63c.35-2.6,1.21-4.64,2.58-6.12Z"/>
  </g>
</svg>