<?xml version="1.0" encoding="UTF-8"?>
<svg id="Potentia_identity" data-name="Potentia identity" xmlns="http://www.w3.org/2000/svg" viewBox="0 0 125.58 125.41">
  <defs>
    <style>
      .cls-1 {
        fill: #0b141b;
        stroke-width: 0px;
      }
    </style>
  </defs>
  <path class="cls-1" d="M30.32,104.2l-.05-25.4h20.83l-.07-18.78h17.88c8.06,0,13.7-2.8,17.17-6.43-2.08-1.89-4.99-3.37-8.73-4.46-7.59-2.21-16.5-2.2-21.83-2.2h-25.21s-.06-23.18-.06-23.18h28.69c17.61,0,36.42,5.29,36.42,20.15,0,3.52-.97,6.81-2.8,9.71,1.93,3.13,2.53,6.45,2.53,9.34,0,6.32-2.87,14.49-16.54,18.44-7.92,2.29-17.05,2.41-22.43,2.41l.07,20.27-25.88.13ZM35.15,83.8l.05,15.42,15.82-.08-.1-15.34h-15.77ZM56.06,65.02l.05,13.77c5.12,0,13.79.07,21.05-2.02,8.69-2.51,12.92-7.03,12.92-13.82,0-1.92-.33-3.66-1-5.22-.9.82-1.9,1.59-2.98,2.3-4.78,3.13-11.2,4.99-17.18,4.99h-12.85ZM56.22,41.91c5.65,0,14.59.09,22.53,2.4,4.49,1.31,7.8,3.11,10.22,5.16.93-1.9,1.39-3.84,1.39-5.58,0-5.14-3.38-9.09-10.06-11.74-7.46-2.96-16.58-3.41-21.35-3.41l-23.79.06.02,13.02,20.35.08h.7Z"/>
</svg>